<svg width="200" height="80" viewBox="0 0 200 80" xmlns="http://www.w3.org/2000/svg">
  <defs>
    <style>
      .logo-text-dark { fill: #1a3a52; }
      .logo-text-light { fill: #20b2aa; }
      .logo-icon { fill: #20b2aa; }
    </style>
  </defs>
  
  <!-- Service Icons Circle -->
  <g transform="translate(20, 15)">
    <!-- Phone -->
    <rect class="logo-icon" x="0" y="0" width="6" height="10" rx="1"/>
    <!-- Building -->
    <rect class="logo-icon" x="15" y="-2" width="10" height="12" rx="1"/>
    <rect class="logo-icon" x="16" y="0" width="2" height="2"/>
    <rect class="logo-icon" x="20" y="0" width="2" height="2"/>
    <!-- Briefcase -->
    <rect class="logo-icon" x="30" y="2" width="8" height="6" rx="1"/>
    <path class="logo-icon" d="M 32 2 L 32 0 L 36 0 L 36 2"/>
    <!-- Credit Card -->
    <rect class="logo-icon" x="40" y="5" width="10" height="6" rx="1"/>
    <line class="logo-icon" x1="41" y1="7" x2="49" y2="7" stroke="#20b2aa" stroke-width="0.5"/>
    <!-- Cup -->
    <path class="logo-icon" d="M 48 12 L 50 20 L 56 20 L 58 12 Z"/>
    <circle class="logo-icon" cx="60" cy="16" r="2"/>
    <!-- Globe -->
    <circle class="logo-icon" cx="5" cy="25" r="5" fill="none" stroke="#20b2aa" stroke-width="1"/>
    <ellipse class="logo-icon" cx="5" cy="25" rx="2" ry="5" fill="none" stroke="#20b2aa" stroke-width="1"/>
    <line class="logo-icon" x1="0" y1="25" x2="10" y2="25" stroke="#20b2aa" stroke-width="1"/>
    <!-- Earth -->
    <circle class="logo-icon" cx="20" cy="30" r="5" fill="none" stroke="#20b2aa" stroke-width="1"/>
    <path class="logo-icon" d="M 17 27 Q 20 30 23 27" fill="none" stroke="#20b2aa" stroke-width="1"/>
    <!-- Diamond -->
    <path class="logo-icon" d="M 35 25 L 40 30 L 35 35 L 30 30 Z"/>
    
    <!-- Cursor/Arrow -->
    <path class="logo-icon" d="M 48 20 L 52 32 L 50 30 L 56 34 L 54 28 L 52 26 Z" transform="rotate(-25 52 27)"/>
  </g>
  
  <!-- QuickFix Text -->
  <text x="75" y="40" font-family="Arial, sans-serif" font-size="24" font-weight="bold">
    <tspan class="logo-text-dark">Quick</tspan><tspan class="logo-text-light">Fix</tspan>
  </text>
  
  <!-- Tagline -->
  <text x="75" y="55" font-family="Arial, sans-serif" font-size="8" letter-spacing="1">
    <tspan class="logo-text-dark">INSTANT </tspan>
    <tspan class="logo-text-light">HOME</tspan>
    <tspan class="logo-text-dark"> SERVICE </tspan>
    <tspan class="logo-text-light">HUB</tspan>
  </text>
</svg>
